HIERARCHY
ROOT Bip001_Pelvis
{
  OFFSET 1.9202 94.1302 -9.65566
  CHANNELS 6 Xposition Yposition Zposition Zrotation Xrotation Yrotation
  JOINT Bip001_Spine
  {
    OFFSET 1.44608e-005 10.4157 -0.0118244
    CHANNELS 3 Zrotation Xrotation Yrotation
    JOINT Bip001_L_Thigh
    {
      OFFSET 11.2582 -10.4157 0.0118432
      CHANNELS 3 Zrotation Xrotation Yrotation
      JOINT Bip001_L_Calf
      {
        OFFSET -0.720717 -44.8687 0.366937
        CHANNELS 3 Zrotation Xrotation Yrotation
        JOINT Bip001_L_Foot
        {
          OFFSET -0.664439 -41.3745 -3.62995
          CHANNELS 3 Zrotation Xrotation Yrotation
          JOINT Bip001_L_Toe0
          {
            OFFSET 0.0541047 -10.4146 13.4033
            CHANNELS 3 Zrotation Xrotation Yrotation
            End Site
            {
              OFFSET -1.04503e-005 0 7.70137
            }
          }
        }
      }
    }
    JOINT Bip001_R_Thigh
    {
      OFFSET -11.2582 -10.4156 0.0118122
      CHANNELS 3 Zrotation Xrotation Yrotation
      JOINT Bip001_R_Calf
      {
        OFFSET 0.72059 -44.8687 0.36676
        CHANNELS 3 Zrotation Xrotation Yrotation
        JOINT Bip001_R_Foot
        {
          OFFSET 0.664321 -41.3745 -3.62979
          CHANNELS 3 Zrotation Xrotation Yrotation
          JOINT Bip001_R_Toe0
          {
            OFFSET -0.05417 -10.4146 13.4033
            CHANNELS 3 Zrotation Xrotation Yrotation
            End Site
            {
              OFFSET -1.04873e-005 0 7.70137
            }
          }
        }
      }
    }
    JOINT Bip001_Spine1
    {
      OFFSET 1.90638e-005 14.8539 1.10727
      CHANNELS 3 Zrotation Xrotation Yrotation
      JOINT Bip001_Spine2
      {
        OFFSET 2.28934e-005 14.7848 -1.7233
        CHANNELS 3 Zrotation Xrotation Yrotation
        JOINT Bip001_Neck
        {
          OFFSET 2.24514e-005 15.6905 -0.498826
          CHANNELS 3 Zrotation Xrotation Yrotation
          JOINT Bip001_L_Clavicle
          {
            OFFSET 6.17691 -0.000591152 0.00852867
            CHANNELS 3 Zrotation Xrotation Yrotation
            JOINT Bip001_L_UpperArm
            {
              OFFSET 11.773 -0.0611878 0.00197697
              CHANNELS 3 Zrotation Xrotation Yrotation
              JOINT Bip001_L_Forearm
              {
                OFFSET 26.4515 0.0817569 -2.19579
                CHANNELS 3 Zrotation Xrotation Yrotation
                JOINT Bip001_L_Hand
                {
                  OFFSET 32.8677 0.156744 1.67112
                  CHANNELS 3 Zrotation Xrotation Yrotation
                  JOINT Bip001_L_Finger0
                  {
                    OFFSET 6.16267 -2.25226 6.01673
                    CHANNELS 3 Zrotation Xrotation Yrotation
                    End Site
                    {
                      OFFSET 4.30498 -1.46663 0.618147
                    }
                  }
                  JOINT Bip001_L_Finger1
                  {
                    OFFSET 11.2957 -0.718375 -0.201963
                    CHANNELS 3 Zrotation Xrotation Yrotation
                    End Site
                    {
                      OFFSET 6.31952 -0.405163 -0.0802302
                    }
                  }
                }
              }
            }
          }
          JOINT Bip001_R_Clavicle
          {
            OFFSET -6.17691 -0.000574027 0.00851165
            CHANNELS 3 Zrotation Xrotation Yrotation
            JOINT Bip001_R_UpperArm
            {
              OFFSET -11.773 -0.0611516 0.00194365
              CHANNELS 3 Zrotation Xrotation Yrotation
              JOINT Bip001_R_Forearm
              {
                OFFSET -26.4514 0.0822335 -2.19736
                CHANNELS 3 Zrotation Xrotation Yrotation
                JOINT Bip001_R_Hand
                {
                  OFFSET -32.8677 0.156816 1.67144
                  CHANNELS 3 Zrotation Xrotation Yrotation
                  JOINT Bip001_R_Finger0
                  {
                    OFFSET -6.1627 -2.25224 6.01673
                    CHANNELS 3 Zrotation Xrotation Yrotation
                    End Site
                    {
                      OFFSET -4.30499 -1.46661 0.618137
                    }
                  }
                  JOINT Bip001_R_Finger1
                  {
                    OFFSET -11.2958 -0.718342 -0.201995
                    CHANNELS 3 Zrotation Xrotation Yrotation
                    End Site
                    {
                      OFFSET -6.31952 -0.405145 -0.080248
                    }
                  }
                }
              }
            }
          }
          JOINT Bip001_Head
          {
            OFFSET 1.11782e-005 11.4912 2.09908
            CHANNELS 3 Zrotation Xrotation Yrotation
            End Site
            {
              OFFSET 2.95144e-005 21.2823 -2.83069e-005
            }
          }
        }
      }
    }
  }
}
MOTION
Frames:	5
Frame Time:	0.0333333
1.85833 94.1176 -9.53052 -2.45311 -6.62599 5.7211 -0.356301 3.40784 0.600521 5.50479 -6.85866 -6.37186 -0.2092 21.6201 -3.50234 -1.07921 -9.57195 2.82903 1.0666e-007 -2.12739e-007 3.17382e-008 3.72476 -6.45105 6.38163 -0.127145 14.686 -3.02135 -0.940352 -3.36869 -5.32125 5.73253e-007 -1.15634e-007 -1.13028e-006 1.80753 6.84033 0.762296 1.80998 6.84223 0.749001 5.29288 1.00161 7.00386 -32.3544 6.67363 -14.008 -33.2236 57.6315 -15.5393 -2.48082 0.65471 -25.782 11.2002 12.6193 1.11199 -3.18055e-015 1.59028e-015 2.38542e-015 -3.18055e-015 -1.59028e-015 1.59028e-015 18.0909 -3.07855 -9.63119 31.5084 46.6888 26.1787 1.77206 0.170289 12.5977 -8.54884 4.90507 -5.43959 -3.18055e-015 3.18055e-015 4.77083e-015 -3.18055e-015 6.36111e-015 4.77083e-015 -10.3853 26.2265 14.8833 
1.84102 94.1173 -9.5034 -2.43758 -6.64188 5.81669 -0.359012 3.40765 0.601332 5.53208 -6.84574 -6.33612 -0.208055 21.6153 -3.50211 -1.11224 -9.61796 2.64781 1.0666e-007 -2.12739e-007 3.17382e-008 3.76456 -6.42973 6.44956 -0.125054 14.7194 -3.02155 -0.950925 -3.42178 -5.42254 5.73253e-007 -1.15634e-007 -1.13028e-006 1.80391 6.83971 0.78023 1.8054 6.84237 0.767076 5.29873 1.02019 7.03655 -32.3475 6.67624 -14.0451 -33.3377 57.6118 -15.4406 -2.4818 0.65317 -25.735 11.2461 12.8052 1.11543 3.18055e-015 0 -7.95139e-016 3.18055e-015 0 -7.95139e-016 18.1179 -3.10867 -9.65412 31.4986 46.6339 26.1521 1.7716 0.169972 12.5639 -8.70619 5.26012 -5.36476 1.59028e-015 0 3.18055e-015 1.59028e-015 0 4.77083e-015 -10.396 26.3217 14.9013 
1.82186 94.1215 -9.4791 -2.41903 -6.65728 5.90467 -0.368487 3.40743 0.602904 5.49992 -6.80923 -6.57445 -0.208068 21.5782 -3.49987 -1.13933 -9.7654 2.72757 1.0666e-007 -2.12739e-007 3.17382e-008 3.79711 -6.40867 6.48786 -0.123209 14.7493 -3.02114 -0.954627 -3.46505 -5.48002 5.73253e-007 -1.15634e-007 -1.13028e-006 1.7937 6.83817 0.792819 1.79453 6.84071 0.779162 5.32409 1.09541 7.05185 -32.3528 6.62158 -14.0982 -33.426 57.6489 -15.3801 -2.48251 0.652265 -25.6755 11.3368 12.9846 1.12291 -3.18055e-015 -1.59028e-015 -0 -3.18055e-015 0 7.95139e-016 18.1007 -3.18432 -9.64962 31.4531 46.6608 26.1707 1.77077 0.168237 12.5129 -8.87358 5.57629 -5.3055 -6.36111e-015 3.18055e-015 3.18055e-015 -6.36111e-015 3.18056e-015 3.18055e-015 -10.4079 26.3977 14.9043 
1.7956 94.134 -9.45497 -2.3891 -6.66341 5.99729 -0.39595 3.40717 0.608008 5.35883 -6.72946 -7.35896 -0.210018 21.4541 -3.49528 -1.18337 -9.88776 3.37339 1.0666e-007 -2.12739e-007 3.17382e-008 3.82879 -6.39064 6.4981 -0.121587 14.7763 -3.02022 -0.954199 -3.49165 -5.50268 5.73253e-007 -1.15634e-007 -1.13028e-006 1.78012 6.83499 0.799172 1.78086 6.8361 0.785464 5.3529 1.16832 7.06891 -32.358 6.57003 -14.1514 -33.5087 57.6901 -15.2892 -2.48226 0.651803 -25.6643 11.4158 13.1899 1.14517 -6.36111e-015 -4.77083e-015 1.59028e-015 -6.36111e-015 -1.59028e-015 7.95139e-016 18.082 -3.25673 -9.64741 31.3821 46.7425 26.2202 1.76954 0.165212 12.4612 -9.01307 5.8384 -5.25346 -3.18055e-015 -3.18055e-015 -1.59028e-015 -3.18055e-015 -9.54167e-015 -1.59028e-015 -10.4281 26.4543 14.9249 
1.76939 94.151 -9.43305 -2.3519 -6.66372 6.08853 -0.427653 3.40688 0.614059 5.17527 -6.63415 -8.34002 -0.210263 21.288 -3.48903 -1.23445 -9.94084 4.22509 1.0666e-007 -2.12739e-007 3.17382e-008 3.86243 -6.37888 6.56202 -0.12109 14.7969 -3.01603 -0.953793 -3.50875 -5.60358 5.73253e-007 -1.15634e-007 -1.13028e-006 1.76589 6.82807 0.80194 1.76668 6.83 0.789018 5.35163 1.20049 7.10099 -32.3495 6.56083 -14.1962 -33.5821 57.6882 -15.1659 -2.48124 0.651548 -25.6984 11.4567 13.4069 1.1882 3.18055e-015 -1.59028e-015 -7.95139e-016 3.18055e-015 1.59028e-015 -7.95139e-016 18.0805 -3.29888 -9.6651 31.2909 46.8556 26.289 1.76775 0.161848 12.4074 -9.09059 6.06313 -5.17992 6.36111e-015 0 -0 6.36111e-015 0 -1.59028e-015 -10.4651 26.4903 14.9783 
